<svg xmlns="http://www.w3.org/2000/svg" version="1.1" xmlns:xlink="http://www.w3.org/1999/xlink" width="1000" height="1000"><g clip-path="url(#SvgjsClipPath1003)"><rect width="1000" height="1000" fill="#ffffff"></rect><g transform="matrix(3.5,0,0,3.5,150,150)"><svg xmlns="http://www.w3.org/2000/svg" version="1.1" xmlns:xlink="http://www.w3.org/1999/xlink" width="200" height="200"><svg xmlns="http://www.w3.org/2000/svg" version="1.1" xmlns:xlink="http://www.w3.org/1999/xlink" viewBox="0 0 200 200"><rect width="200" height="200" fill="url('#gradient')"></rect><defs><linearGradient id="gradient" gradientTransform="rotate(59 0.5 0.5)"><stop offset="0%" stop-color="#29749f"></stop><stop offset="100%" stop-color="#23d57a"></stop></linearGradient><clipPath id="SvgjsClipPath1003"><rect width="1000" height="1000" x="0" y="0" rx="350" ry="350"></rect></clipPath></defs><g><g fill="#131d2f" transform="matrix(6.65890359168242,0,0,6.65890359168242,14.199285256287993,147.34906040653163)" stroke="#3494be" stroke-width="0.35"><path d="M3.77-14.22L6.59-3.87L9.42-14.22L13.25-14.22L8.47 0L4.72 0L-0.03-14.22L3.77-14.22ZM25.80-7.60L25.80-1.76Q25.01-0.88 23.49-0.34Q21.96 0.20 20.15 0.20L20.15 0.20Q17.35 0.20 15.68-1.51Q14.01-3.22 13.90-6.27L13.90-6.27L13.89-7.50Q13.89-9.60 14.63-11.17Q15.37-12.73 16.75-13.58Q18.13-14.42 19.95-14.42L19.95-14.42Q22.61-14.42 24.08-13.21Q25.55-11.99 25.79-9.58L25.79-9.58L22.49-9.58Q22.31-10.77 21.73-11.28Q21.14-11.79 20.07-11.79L20.07-11.79Q18.78-11.79 18.08-10.69Q17.37-9.60 17.36-7.57L17.36-7.57L17.36-6.71Q17.36-4.58 18.09-3.51Q18.82-2.44 20.38-2.44L20.38-2.44Q21.72-2.44 22.37-3.04L22.37-3.04L22.37-5.24L19.99-5.24L19.99-7.60L25.80-7.60Z"></path></g></g></svg></svg></g></g></svg>